<svg xmlns="http://www.w3.org/2000/svg" viewBox="0 0 120 120"><defs><linearGradient id="bg" x2="0" y2="1"><stop stop-color="#eac6a7"/><stop offset="1" stop-color="#d79e91"/></linearGradient></defs><rect width="120" height="120" rx="60" fill="url(#bg)"/><circle cx="90" cy="20" r="19" fill="#f4d9a8" opacity=".7"/><path d="M17 120c4-26 17-38 43-39 29 0 43 14 48 39" fill="#536b66"/><path d="M34 54c-6-26 6-43 26-43 21 0 31 17 27 42l-5 25H39z" fill="#503b35"/><ellipse cx="60" cy="57" rx="23" ry="29" fill="#edb99d"/><path d="M37 47c5-17 14-25 29-22 12 2 18 10 19 21-8-2-16-9-19-16-5 9-15 15-29 17" fill="#503b35"/><path d="M51 60h.5m17 0h.5" stroke="#4a3c38" stroke-width="3" stroke-linecap="round"/><path d="M55 72c4 3 8 3 12 0" fill="none" stroke="#b26061" stroke-width="2" stroke-linecap="round"/><path d="M41 53c3-3 7-3 10-1m18 0c4-2 8-2 11 1" fill="none" stroke="#463431" stroke-width="2" stroke-linecap="round"/><path d="M46 86c8 6 20 6 28 0l10 34H36z" fill="#fff0dc"/></svg>
